<?xml version="1.0" standalone="no"?><!DOCTYPE svg PUBLIC "-//W3C//DTD SVG 1.1//EN" "http://www.w3.org/Graphics/SVG/1.1/DTD/svg11.dtd"><svg t="1502631062281" class="icon" style="" viewBox="0 0 1024 1024" version="1.1" xmlns="http://www.w3.org/2000/svg" p-id="3678" xmlns:xlink="http://www.w3.org/1999/xlink" width="48" height="48"><defs><style type="text/css"></style></defs><path d="M511.986 1009.778C237.51 1009.778 14.208 786.475 14.208 512S237.511 14.222 511.986 14.222c274.489 0 497.806 223.303 497.806 497.778s-223.317 497.778-497.806 497.778z m0-967.111C253.198 42.667 42.652 253.212 42.652 512c0 258.802 210.546 469.333 469.334 469.333 258.802 0 469.362-210.56 469.362-469.333 0-258.802-210.56-469.333-469.362-469.333zM404.907 313.628v396.7-396.7z" p-id="3679" fill="#ffffff"></path><path d="M369.351 313.628h71.111v396.715h-71.11V313.628zM619.093 313.628v396.7-396.7zM583.538 313.628h71.11v396.715h-71.11V313.628z" p-id="3680" fill="#ffffff"></path></svg>