<?xml version="1.0" standalone="no"?><!DOCTYPE svg PUBLIC "-//W3C//DTD SVG 1.1//EN" "http://www.w3.org/Graphics/SVG/1.1/DTD/svg11.dtd"><svg t="1502625387298" class="icon" style="" viewBox="0 0 1024 1024" version="1.1" xmlns="http://www.w3.org/2000/svg" p-id="2734" xmlns:xlink="http://www.w3.org/1999/xlink" width="48" height="48"><defs><style type="text/css"></style></defs><path d="M512 65.290005c-246.710938 0-446.708971 199.999057-446.708971 446.708971s199.999057 446.708971 446.708971 446.708971S958.708971 758.709915 958.708971 512 758.709915 65.290005 512 65.290005zM512 940.841022c-236.842173 0-428.841022-191.998849-428.841022-428.841022S275.157827 83.158978 512 83.158978c236.842173 0 428.841022 191.998849 428.841022 428.841022S748.842173 940.841022 512 940.841022zM676.985612 498.138294 442.795848 334.155523c-6.064113-4.244674-14.419408-2.771113-18.664082 3.290953-2.685155 3.833305-3.076058 8.582469-1.473561 12.630668L422.658206 673.921833c-1.603521 4.048199-1.211595 8.797363 1.473561 12.630668 4.244674 6.063089 12.600993 7.535627 18.664082 3.290953l234.189763-163.982772c4.569062-3.199878 6.52767-8.732895 5.40101-13.861706C683.513282 506.872213 681.554674 501.338173 676.985612 498.138294z" p-id="2735" fill="#ffffff"></path></svg>